{
  "accessors": [
    {
      "bufferView": 2,
      "componentType": 5126,
      "count": 3603,
      "max": [
        45.9192008972168,
        59.51789855957031,
        77.02790069580078
      ],
      "min": [
        -47.56449890136719,
        -57.93470001220703,
        6.064799785614014
      ],
      "type": "VEC3"
    },
    {
      "bufferView": 2,
      "byteOffset": 43236,
      "componentType": 5126,
      "count": 3603,
      "max": [
        1.0,
        1.0,
        1.0
      ],
      "min": [
        -1.0,
        -1.0,
        -1.0
      ],
      "type": "VEC3"
    },
    {
      "bufferView": 3,
      "componentType": 5126,
      "count": 3603,
      "max": [
        1.0,
        0.9999986886978149,
        1.0,
        1.0
      ],
      "min": [
        -1.0,
        -1.0,
        -1.0,
        -1.0
      ],
      "type": "VEC4"
    },
    {
      "bufferView": 1,
      "componentType": 5126,
      "count": 3603,
      "max": [
        0.996399998664856,
        0.9958000183105469
      ],
      "min": [
        0.009800000116229057,
        0.011599999852478504
      ],
      "type": "VEC2"
    },
    {
      "bufferView": 0,
      "componentType": 5125,
      "count": 14523,
      "type": "SCALAR"
    },
    {
      "bufferView": 2,
      "byteOffset": 86472,
      "componentType": 5126,
      "count": 11314,
      "max": [
        48.2411003112793,
        59.51789855957031,
        77.02790069580078
      ],
      "min": [
        -47.56449890136719,
        -60.04389953613281,
        2.8963000774383545
      ],
      "type": "VEC3"
    },
    {
      "bufferView": 2,
      "byteOffset": 222240,
      "componentType": 5126,
      "count": 11314,
      "max": [
        1.0,
        1.0,
        1.0
      ],
      "min": [
        -1.0,
        -1.0,
        -1.0
      ],
      "type": "VEC3"
    },
    {
      "bufferView": 3,
      "byteOffset": 57648,
      "componentType": 5126,
      "count": 11314,
      "max": [
        1.0,
        1.0,
        0.9999991655349731,
        1.0
      ],
      "min": [
        -1.0,
        -1.0,
        -0.9999997615814209,
        -1.0
      ],
      "type": "VEC4"
    },
    {
      "bufferView": 1,
      "byteOffset": 28824,
      "componentType": 5126,
      "count": 11314,
      "max": [
        0.9973000288009644,
        0.9911999702453613
      ],
      "min": [
        0.005799999926239252,
        0.003000000026077032
      ],
      "type": "VEC2"
    },
    {
      "bufferView": 0,
      "byteOffset": 58092,
      "componentType": 5125,
      "count": 57795,
      "type": "SCALAR"
    },
    {
      "bufferView": 2,
      "byteOffset": 358008,
      "componentType": 5126,
      "count": 1077,
      "max": [
        26.246000289916992,
        58.093299865722656,
        77.02790069580078
      ],
      "min": [
        -44.872398376464844,
        -58.742000579833984,
        9.9483003616333
      ],
      "type": "VEC3"
    },
    {
      "bufferView": 2,
      "byteOffset": 370932,
      "componentType": 5126,
      "count": 1077,
      "max": [
        1.0,
        1.0,
        1.0
      ],
      "min": [
        -1.0,
        -1.0,
        -1.0
      ],
      "type": "VEC3"
    },
    {
      "bufferView": 3,
      "byteOffset": 238672,
      "componentType": 5126,
      "count": 1077,
      "max": [
        0.9996176362037659,
        0.9992058277130127,
        1.0,
        1.0
      ],
      "min": [
        -0.9999921917915344,
        -1.0,
        -1.0,
        -1.0
      ],
      "type": "VEC4"
    },
    {
      "bufferView": 1,
      "byteOffset": 119336,
      "componentType": 5126,
      "count": 1077,
      "max": [
        0.9667999744415283,
        0.9801999926567078
      ],
      "min": [
        0.07479999959468842,
        0.041999999433755875
      ],
      "type": "VEC2"
    },
    {
      "bufferView": 0,
      "byteOffset": 289272,
      "componentType": 5125,
      "count": 3564,
      "type": "SCALAR"
    }
  ],
  "asset": {
    "extras": {
      "author": "RAW (https://sketchfab.com/ocbsketch)",
      "license": "CC-BY-4.0 (http://creativecommons.org/licenses/by/4.0/)",
      "source": "https://sketchfab.com/3d-models/canon-eos-5d-mark-iv-33001ed6f05042d89ac8690ffaaed0a4",
      "title": "Canon EOS 5D Mark IV"
    },
    "generator": "Sketchfab-14.73.0",
    "version": "2.0"
  },
  "bufferViews": [
    {
      "buffer": 0,
      "byteLength": 303528,
      "name": "floatBufferViews",
      "target": 34963
    },
    {
      "buffer": 0,
      "byteLength": 127952,
      "byteOffset": 303528,
      "byteStride": 8,
      "name": "floatBufferViews",
      "target": 34962
    },
    {
      "buffer": 0,
      "byteLength": 383856,
      "byteOffset": 431480,
      "byteStride": 12,
      "name": "floatBufferViews",
      "target": 34962
    },
    {
      "buffer": 0,
      "byteLength": 255904,
      "byteOffset": 815336,
      "byteStride": 16,
      "name": "floatBufferViews",
      "target": 34962
    }
  ],
  "buffers": [
    {
      "byteLength": 1071240,
      "uri": "scene.bin"
    }
  ],
  "extensionsRequired": [
    "KHR_materials_pbrSpecularGlossiness"
  ],
  "extensionsUsed": [
    "KHR_materials_pbrSpecularGlossiness"
  ],
  "images": [
    {
      "uri": "textures/DSLR_diffuse.png"
    },
    {
      "uri": "textures/DSLR_specularGlossiness.png"
    },
    {
      "uri": "textures/DSLR_normal.png"
    }
  ],
  "materials": [
    {
      "alphaMode": "BLEND",
      "doubleSided": true,
      "extensions": {
        "KHR_materials_pbrSpecularGlossiness": {
          "diffuseFactor": [
            1.0,
            1.0,
            1.0,
            1.0
          ],
          "diffuseTexture": {
            "index": 0
          },
          "glossinessFactor": 1.0,
          "specularFactor": [
            1.0,
            1.0,
            1.0
          ],
          "specularGlossinessTexture": {
            "index": 1
          }
        }
      },
      "name": "DSLR",
      "normalTexture": {
        "index": 2
      }
    }
  ],
  "meshes": [
    {
      "name": "Object_0",
      "primitives": [
        {
          "attributes": {
            "NORMAL": 1,
            "POSITION": 0,
            "TANGENT": 2,
            "TEXCOORD_0": 3
          },
          "indices": 4,
          "material": 0,
          "mode": 4
        }
      ]
    },
    {
      "name": "Object_1",
      "primitives": [
        {
          "attributes": {
            "NORMAL": 6,
            "POSITION": 5,
            "TANGENT": 7,
            "TEXCOORD_0": 8
          },
          "indices": 9,
          "material": 0,
          "mode": 4
        }
      ]
    },
    {
      "name": "Object_2",
      "primitives": [
        {
          "attributes": {
            "NORMAL": 11,
            "POSITION": 10,
            "TANGENT": 12,
            "TEXCOORD_0": 13
          },
          "indices": 14,
          "material": 0,
          "mode": 4
        }
      ]
    }
  ],
  "nodes": [
    {
      "children": [
        1
      ],
      "matrix": [
        0.002701555611565709,
        0.0,
        0.0,
        0.0,
        0.0,
        5.998658484531092e-19,
        -0.002701555611565709,
        0.0,
        0.0,
        0.002701555611565709,
        5.998658484531092e-19,
        0.0,
        0.0,
        0.0,
        0.0,
        1.0
      ],
      "name": "Sketchfab_model"
    },
    {
      "children": [
        2,
        3,
        4
      ],
      "name": "DSLR.obj.cleaner.materialmerger.gles"
    },
    {
      "mesh": 0,
      "name": "Object_2"
    },
    {
      "mesh": 1,
      "name": "Object_3"
    },
    {
      "mesh": 2,
      "name": "Object_4"
    }
  ],
  "samplers": [
    {
      "magFilter": 9729,
      "minFilter": 9987,
      "wrapS": 10497,
      "wrapT": 10497
    }
  ],
  "scene": 0,
  "scenes": [
    {
      "name": "Sketchfab_Scene",
      "nodes": [
        0
      ]
    }
  ],
  "textures": [
    {
      "sampler": 0,
      "source": 0
    },
    {
      "sampler": 0,
      "source": 1
    },
    {
      "sampler": 0,
      "source": 2
    }
  ]
}
